<svg id="visual" viewBox="0 0 900 600" width="900" height="600" xmlns="http://www.w3.org/2000/svg" xmlns:xlink="http://www.w3.org/1999/xlink" version="1.1"><rect x="0" y="0" width="900" height="600" fill="#002233"></rect><path d="M0 461L25 469.7C50 478.3 100 495.7 150 487.7C200 479.7 250 446.3 300 423.3C350 400.3 400 387.7 450 399.2C500 410.7 550 446.3 600 446.5C650 446.7 700 411.3 750 400C800 388.7 850 401.3 875 407.7L900 414L900 601L875 601C850 601 800 601 750 601C700 601 650 601 600 601C550 601 500 601 450 601C400 601 350 601 300 601C250 601 200 601 150 601C100 601 50 601 25 601L0 601Z" fill="#0066FF" stroke-linecap="round" stroke-linejoin="miter"></path></svg>